<mxfile host="65bd71144e">
    <diagram id="kgpKYQtTHZ0yAKxKKP6v" name="Page-1">
        <mxGraphModel dx="1631" dy="680" grid="1" gridSize="10" guides="1" tooltips="1" connect="1" arrows="1" fold="1" page="1" pageScale="1" pageWidth="850" pageHeight="1100" math="0" shadow="0">
            <root>
                <mxCell id="0"/>
                <mxCell id="1" parent="0"/>
                <mxCell id="3nuBFxr9cyL0pnOWT2aG-1" value="Patient" style="shape=umlLifeline;perimeter=lifelinePerimeter;container=1;collapsible=0;recursiveResize=0;rounded=0;shadow=0;strokeWidth=1;fillColor=#96FF9A;" parent="1" vertex="1" treatAsSingle="0">
                    <mxGeometry x="22" y="120" width="100" height="480" as="geometry"/>
                </mxCell>
                <mxCell id="3nuBFxr9cyL0pnOWT2aG-2" value="" style="points=[];perimeter=orthogonalPerimeter;rounded=0;shadow=0;strokeWidth=1;" parent="3nuBFxr9cyL0pnOWT2aG-1" vertex="1">
                    <mxGeometry x="45" y="69" width="10" height="391" as="geometry"/>
                </mxCell>
                <mxCell id="3nuBFxr9cyL0pnOWT2aG-5" value="Submitting Provider" style="shape=umlLifeline;perimeter=lifelinePerimeter;container=1;collapsible=0;recursiveResize=0;rounded=0;shadow=0;strokeWidth=1;fillColor=#99CCFF;" parent="1" vertex="1" treatAsSingle="0">
                    <mxGeometry x="197" y="119" width="110" height="420" as="geometry"/>
                </mxCell>
                <mxCell id="3nuBFxr9cyL0pnOWT2aG-6" value="" style="points=[];perimeter=orthogonalPerimeter;rounded=0;shadow=0;strokeWidth=1;" parent="3nuBFxr9cyL0pnOWT2aG-5" vertex="1">
                    <mxGeometry x="50" y="70" width="10" height="350" as="geometry"/>
                </mxCell>
                <mxCell id="SfCazmH2R6rvJbLZBPh0-1" value="Payer" style="shape=umlLifeline;perimeter=lifelinePerimeter;container=1;collapsible=0;recursiveResize=0;rounded=0;shadow=0;strokeWidth=1;fillColor=#E6D0DE;glass=0;sketch=0;" parent="1" vertex="1" treatAsSingle="0">
                    <mxGeometry x="545" y="119" width="280" height="561" as="geometry"/>
                </mxCell>
                <mxCell id="SfCazmH2R6rvJbLZBPh0-2" value="" style="points=[];perimeter=orthogonalPerimeter;rounded=0;shadow=0;strokeWidth=1;fillColor=#E6E6E6;" parent="SfCazmH2R6rvJbLZBPh0-1" vertex="1">
                    <mxGeometry y="260" width="280" height="210" as="geometry"/>
                </mxCell>
                <mxCell id="ogFRtUQ3psGFR55wJX58-8" value="" style="group" parent="SfCazmH2R6rvJbLZBPh0-1" vertex="1" connectable="0">
                    <mxGeometry x="13" y="289" width="70" height="160" as="geometry"/>
                </mxCell>
                <mxCell id="ogFRtUQ3psGFR55wJX58-1" value="" style="rounded=0;whiteSpace=wrap;html=1;fillColor=#ffe6cc;strokeColor=#d79b00;dashed=1;" parent="ogFRtUQ3psGFR55wJX58-8" vertex="1">
                    <mxGeometry x="-2" y="1" width="70" height="160" as="geometry"/>
                </mxCell>
                <mxCell id="ogFRtUQ3psGFR55wJX58-3" value="&lt;font style=&quot;font-size: 12px ; font-weight: normal&quot;&gt;FHIR-X12&lt;br&gt;Validate / &lt;br&gt;Translate&lt;/font&gt;" style="text;strokeColor=none;fillColor=none;html=1;fontSize=24;fontStyle=1;verticalAlign=middle;align=center;" parent="ogFRtUQ3psGFR55wJX58-8" vertex="1">
                    <mxGeometry y="30.333333333333332" width="70" height="53.333333333333336" as="geometry"/>
                </mxCell>
                <mxCell id="aAGMAaikRAZB5L4dtnXu-7" value="3" style="ellipse;whiteSpace=wrap;html=1;aspect=fixed;fillColor=#e51400;strokeColor=#B20000;fontColor=#ffffff;" parent="ogFRtUQ3psGFR55wJX58-8" vertex="1">
                    <mxGeometry x="23" y="3" width="20" height="20" as="geometry"/>
                </mxCell>
                <mxCell id="SfCazmH2R6rvJbLZBPh0-3" value="Secondary Provider(s) &#10;(if needed)" style="shape=umlLifeline;perimeter=lifelinePerimeter;container=1;collapsible=0;recursiveResize=0;rounded=0;shadow=0;strokeWidth=1;fillColor=#99CCFF;" parent="1" vertex="1" treatAsSingle="0">
                    <mxGeometry x="397" y="120" width="130" height="560" as="geometry"/>
                </mxCell>
                <mxCell id="SfCazmH2R6rvJbLZBPh0-4" value="" style="points=[];perimeter=orthogonalPerimeter;rounded=0;shadow=0;strokeWidth=1;" parent="SfCazmH2R6rvJbLZBPh0-3" vertex="1">
                    <mxGeometry x="60" y="69" width="10" height="201" as="geometry"/>
                </mxCell>
                <mxCell id="SfCazmH2R6rvJbLZBPh0-5" value="Create AEOB with GFE FHIR Bundle" style="verticalAlign=bottom;endArrow=block;shadow=0;strokeWidth=1;entryX=0;entryY=0.19;entryDx=0;entryDy=0;entryPerimeter=0;" parent="1" target="SfCazmH2R6rvJbLZBPh0-2" edge="1">
                    <mxGeometry relative="1" as="geometry">
                        <mxPoint x="258" y="421" as="sourcePoint"/>
                        <mxPoint x="540" y="420" as="targetPoint"/>
                        <Array as="points"/>
                    </mxGeometry>
                </mxCell>
                <mxCell id="SfCazmH2R6rvJbLZBPh0-10" value="Compose Good Faith Estimate (GFE)" style="shape=process;whiteSpace=wrap;html=1;backgroundOutline=1;" parent="1" vertex="1">
                    <mxGeometry x="207" y="256" width="90" height="60" as="geometry"/>
                </mxCell>
                <mxCell id="SfCazmH2R6rvJbLZBPh0-11" value="" style="verticalAlign=bottom;endArrow=block;dashed=1;endSize=8;shadow=0;strokeWidth=1;entryX=0;entryY=0.25;entryDx=0;entryDy=0;exitX=1;exitY=0.25;exitDx=0;exitDy=0;endFill=1;" parent="1" source="SfCazmH2R6rvJbLZBPh0-10" target="SfCazmH2R6rvJbLZBPh0-17" edge="1">
                    <mxGeometry relative="1" as="geometry">
                        <mxPoint x="507" y="240" as="targetPoint"/>
                        <mxPoint x="292" y="239" as="sourcePoint"/>
                        <Array as="points"/>
                    </mxGeometry>
                </mxCell>
                <mxCell id="SfCazmH2R6rvJbLZBPh0-13" value="&lt;font style=&quot;font-size: 19px&quot;&gt;Advanced Explanation of Benefits (AEOB) - triggered by request or scheduled service&lt;/font&gt;" style="text;html=1;strokeColor=none;fillColor=none;align=center;verticalAlign=middle;whiteSpace=wrap;rounded=0;" parent="1" vertex="1">
                    <mxGeometry x="70" y="33" width="740" height="20" as="geometry"/>
                </mxCell>
                <mxCell id="SfCazmH2R6rvJbLZBPh0-14" value="" style="verticalAlign=bottom;endArrow=block;dashed=1;endSize=8;shadow=0;strokeWidth=1;exitX=0;exitY=0.75;exitDx=0;exitDy=0;entryX=1;entryY=0.75;entryDx=0;entryDy=0;endFill=1;" parent="1" source="SfCazmH2R6rvJbLZBPh0-17" target="SfCazmH2R6rvJbLZBPh0-10" edge="1">
                    <mxGeometry relative="1" as="geometry">
                        <mxPoint x="302" y="335" as="targetPoint"/>
                        <mxPoint x="412" y="292" as="sourcePoint"/>
                        <Array as="points"/>
                    </mxGeometry>
                </mxCell>
                <mxCell id="SfCazmH2R6rvJbLZBPh0-15" value="Compose AEOB" style="shape=process;whiteSpace=wrap;html=1;backgroundOutline=1;" parent="1" vertex="1">
                    <mxGeometry x="736" y="412" width="81" height="120" as="geometry"/>
                </mxCell>
                <mxCell id="SfCazmH2R6rvJbLZBPh0-17" value="Compose Good Faith Estimate (GFE)" style="shape=process;whiteSpace=wrap;html=1;backgroundOutline=1;" parent="1" vertex="1">
                    <mxGeometry x="418" y="256" width="90" height="60" as="geometry"/>
                </mxCell>
                <mxCell id="SfCazmH2R6rvJbLZBPh0-21" value="" style="shape=umlActor;verticalLabelPosition=bottom;verticalAlign=top;html=1;outlineConnect=0;" parent="1" vertex="1">
                    <mxGeometry x="57" y="60" width="30" height="60" as="geometry"/>
                </mxCell>
                <mxCell id="SfCazmH2R6rvJbLZBPh0-25" value="trigger AEOB creation" style="verticalAlign=bottom;endArrow=block;shadow=0;strokeWidth=1;entryX=0;entryY=0.067;entryDx=0;entryDy=0;entryPerimeter=0;" parent="1" edge="1">
                    <mxGeometry x="-0.0276" y="15" relative="1" as="geometry">
                        <mxPoint x="100" y="212" as="sourcePoint"/>
                        <mxPoint x="246" y="212.1099999999999" as="targetPoint"/>
                        <Array as="points"/>
                        <mxPoint as="offset"/>
                    </mxGeometry>
                </mxCell>
                <mxCell id="ogFRtUQ3psGFR55wJX58-7" value="Create AEOB" style="verticalAlign=bottom;endArrow=block;shadow=0;strokeWidth=1;labelBackgroundColor=none;entryX=0;entryY=0.058;entryDx=0;entryDy=0;entryPerimeter=0;" parent="1" edge="1">
                    <mxGeometry x="0.0769" y="8" relative="1" as="geometry">
                        <mxPoint x="629" y="419" as="sourcePoint"/>
                        <mxPoint x="735" y="418.96000000000004" as="targetPoint"/>
                        <Array as="points"/>
                        <mxPoint as="offset"/>
                    </mxGeometry>
                </mxCell>
                <mxCell id="ogFRtUQ3psGFR55wJX58-9" value="Get AEOB" style="verticalAlign=bottom;endArrow=block;shadow=0;strokeWidth=1;labelBackgroundColor=none;" parent="1" edge="1">
                    <mxGeometry x="0.0192" y="-7" relative="1" as="geometry">
                        <mxPoint x="733" y="517" as="sourcePoint"/>
                        <mxPoint x="629" y="517" as="targetPoint"/>
                        <Array as="points"/>
                        <mxPoint as="offset"/>
                    </mxGeometry>
                </mxCell>
                <mxCell id="qIxCJxl5lMdrLJ7lDj4a-2" style="edgeStyle=orthogonalEdgeStyle;rounded=0;orthogonalLoop=1;jettySize=auto;html=1;endArrow=none;endFill=0;dashed=1;" parent="1" source="3nuBFxr9cyL0pnOWT2aG-6" edge="1">
                    <mxGeometry relative="1" as="geometry">
                        <mxPoint x="252" y="680" as="targetPoint"/>
                    </mxGeometry>
                </mxCell>
                <mxCell id="qIxCJxl5lMdrLJ7lDj4a-3" style="edgeStyle=orthogonalEdgeStyle;rounded=0;orthogonalLoop=1;jettySize=auto;html=1;dashed=1;endArrow=none;endFill=0;" parent="1" source="3nuBFxr9cyL0pnOWT2aG-2" edge="1">
                    <mxGeometry relative="1" as="geometry">
                        <mxPoint x="72" y="680" as="targetPoint"/>
                    </mxGeometry>
                </mxCell>
                <mxCell id="3nuBFxr9cyL0pnOWT2aG-7" value="AEOB FHIR Bundle" style="verticalAlign=bottom;endArrow=block;endSize=8;shadow=0;strokeWidth=1;endFill=1;entryX=0.9;entryY=0.949;entryDx=0;entryDy=0;entryPerimeter=0;" parent="1" edge="1">
                    <mxGeometry x="0.1294" relative="1" as="geometry">
                        <mxPoint x="76" y="560.059" as="targetPoint"/>
                        <mxPoint x="540" y="560" as="sourcePoint"/>
                        <mxPoint as="offset"/>
                    </mxGeometry>
                </mxCell>
                <mxCell id="aAGMAaikRAZB5L4dtnXu-1" value="1" style="ellipse;whiteSpace=wrap;html=1;aspect=fixed;fillColor=#e51400;strokeColor=#B20000;fontColor=#ffffff;" parent="1" vertex="1">
                    <mxGeometry x="160" y="220" width="20" height="20" as="geometry"/>
                </mxCell>
                <mxCell id="aAGMAaikRAZB5L4dtnXu-3" value="2" style="ellipse;whiteSpace=wrap;html=1;aspect=fixed;fillColor=#e51400;strokeColor=#B20000;fontColor=#ffffff;" parent="1" vertex="1">
                    <mxGeometry x="350" y="380" width="20" height="20" as="geometry"/>
                </mxCell>
                <mxCell id="aAGMAaikRAZB5L4dtnXu-4" value="2" style="ellipse;whiteSpace=wrap;html=1;aspect=fixed;fillColor=#e51400;strokeColor=#B20000;fontColor=#ffffff;" parent="1" vertex="1">
                    <mxGeometry x="350" y="380" width="20" height="20" as="geometry"/>
                </mxCell>
                <mxCell id="aAGMAaikRAZB5L4dtnXu-5" value="4" style="ellipse;whiteSpace=wrap;html=1;aspect=fixed;fillColor=#e51400;strokeColor=#B20000;fontColor=#ffffff;" parent="1" vertex="1">
                    <mxGeometry x="668" y="433" width="20" height="20" as="geometry"/>
                </mxCell>
                <mxCell id="aAGMAaikRAZB5L4dtnXu-8" value="5" style="ellipse;whiteSpace=wrap;html=1;aspect=fixed;fillColor=#e51400;strokeColor=#B20000;fontColor=#ffffff;" parent="1" vertex="1">
                    <mxGeometry x="387" y="530" width="20" height="20" as="geometry"/>
                </mxCell>
                <mxCell id="aAGMAaikRAZB5L4dtnXu-12" value="AEOB FHIR Bundle" style="verticalAlign=bottom;endArrow=block;endSize=8;shadow=0;strokeWidth=1;endFill=1;exitX=-0.011;exitY=0.671;exitDx=0;exitDy=0;exitPerimeter=0;" parent="1" edge="1" source="SfCazmH2R6rvJbLZBPh0-2">
                    <mxGeometry x="0.1294" relative="1" as="geometry">
                        <mxPoint x="259" y="520" as="targetPoint"/>
                        <mxPoint x="540" y="520" as="sourcePoint"/>
                        <mxPoint as="offset"/>
                    </mxGeometry>
                </mxCell>
            </root>
        </mxGraphModel>
    </diagram>
</mxfile>